<svg version="1.1" viewBox="0.0 0.0 960.0 720.0" fill="none" stroke="none" stroke-linecap="square" stroke-miterlimit="10" xmlns:xlink="http://www.w3.org/1999/xlink" xmlns="http://www.w3.org/2000/svg"><clipPath id="p.0"><path d="m0 0l960.0 0l0 720.0l-960.0 0l0 -720.0z" clip-rule="nonzero"/></clipPath><g clip-path="url(#p.0)"><path fill="#000000" fill-opacity="0.0" d="m0 0l960.0 0l0 720.0l-960.0 0z" fill-rule="evenodd"/><path fill="#666666" d="m246.56693 179.47456l0 0c0 -28.882324 23.413757 -52.29609 52.296112 -52.29609l362.27393 0c13.869812 0 27.171509 5.509758 36.978943 15.317177c9.807434 9.807419 15.317139 23.10913 15.317139 36.978912l0 26.620422l0 0c0 28.882324 -23.413757 52.296097 -52.29608 52.296097l-362.27393 0c-28.882355 0 -52.296112 -23.413773 -52.296112 -52.296097z" fill-rule="evenodd"/><path stroke="#666666" stroke-width="0.8451443569553806" stroke-linejoin="round" stroke-linecap="butt" d="m246.56693 179.47456l0 0c0 -28.882324 23.413757 -52.29609 52.296112 -52.29609l362.27393 0c13.869812 0 27.171509 5.509758 36.978943 15.317177c9.807434 9.807419 15.317139 23.10913 15.317139 36.978912l0 26.620422l0 0c0 28.882324 -23.413757 52.296097 -52.29608 52.296097l-362.27393 0c-28.882355 0 -52.296112 -23.413773 -52.296112 -52.296097z" fill-rule="evenodd"/><path fill="#666666" d="m246.56693 352.2095l0 0c0 -28.882324 23.413757 -52.29608 52.296112 -52.29608l362.27393 0c13.869812 0 27.171509 5.509735 36.978943 15.317169c9.807434 9.807404 15.317139 23.10913 15.317139 36.978912l0 26.620422l0 0c0 28.882324 -23.413757 52.29608 -52.29608 52.29608l-362.27393 0c-28.882355 0 -52.296112 -23.413757 -52.296112 -52.29608z" fill-rule="evenodd"/><path stroke="#666666" stroke-width="0.8451443569553806" stroke-linejoin="round" stroke-linecap="butt" d="m246.56693 352.2095l0 0c0 -28.882324 23.413757 -52.29608 52.296112 -52.29608l362.27393 0c13.869812 0 27.171509 5.509735 36.978943 15.317169c9.807434 9.807404 15.317139 23.10913 15.317139 36.978912l0 26.620422l0 0c0 28.882324 -23.413757 52.29608 -52.29608 52.29608l-362.27393 0c-28.882355 0 -52.296112 -23.413757 -52.296112 -52.29608z" fill-rule="evenodd"/><path fill="#000000" fill-opacity="0.0" d="m149.27559 461.02887l661.44885 0l0 148.66144l-661.44885 0z" fill-rule="evenodd"/><path fill="#666666" d="m321.47455 585.2289q-2.640625 0 -4.4375 -1.796875q-1.796875 -1.796875 -1.796875 -4.4375l0 -81.25q0 -2.75 1.796875 -4.484375q1.796875 -1.75 4.4375 -1.75l54.25 0q2.75 0 4.421875 1.625q1.6875 1.609375 1.6875 4.25q0 2.53125 -1.6875 4.09375q-1.671875 1.546875 -4.421875 1.546875l-48.0 0l0 29.15625l34.4375 0q2.765625 0 4.4375 1.625q1.6875 1.625 1.6875 4.140625q0 2.515625 -1.6875 4.140625q-1.671875 1.625 -4.4375 1.625l-34.4375 0l0 30.0l48.0 0q2.75 0 4.421875 1.5625q1.6875 1.546875 1.6875 4.078125q0 2.640625 -1.6875 4.265625q-1.671875 1.609375 -4.421875 1.609375l-54.25 0zm74.04678 0q-3.359375 0 -5.171875 -2.875q-1.796875 -2.890625 -0.34375 -6.125l33.71875 -80.515625q1.796875 -4.203125 5.875 -4.203125q4.328125 0 5.875 4.203125l33.84375 80.75q1.328125 3.359375 -0.421875 6.0625q-1.734375 2.703125 -5.21875 2.703125q-1.796875 0 -3.421875 -1.015625q-1.609375 -1.03125 -2.328125 -2.828125l-29.765625 -73.921875l3.359375 0l-30.234375 73.921875q-0.84375 1.921875 -2.46875 2.890625q-1.625 0.953125 -3.296875 0.953125zm6.359375 -20.640625l4.796875 -10.3125l47.046875 0l4.796875 10.3125l-56.640625 0zm155.39743 18.71875l-25.078125 -25.078125q-1.921875 -1.921875 -1.921875 -4.25q0 -2.34375 1.921875 -4.265625q1.921875 -1.921875 4.25 -1.921875q2.34375 0 4.265625 1.921875l25.078125 25.203125q1.8125 1.90625 1.859375 4.1875q0.0625 2.28125 -1.859375 4.203125q-1.90625 1.921875 -4.25 1.921875q-2.34375 0 -4.265625 -1.921875zm-32.765625 3.125q-10.546875 0 -19.31247 -3.53125q-8.765625 -3.546875 -15.0625 -9.96875q-6.296875 -6.421875 -9.78125 -15.234375q-3.46875 -8.828125 -3.46875 -19.390625q0 -10.5625 3.46875 -19.3125q3.484375 -8.765625 9.78125 -15.1875q6.296875 -6.421875 15.0625 -9.953125q8.7655945 -3.546875 19.31247 -3.546875q10.5625 0 19.265625 3.546875q8.703125 3.53125 15.0625 9.953125q6.359375 6.421875 9.828125 15.1875q3.484375 8.75 3.484375 19.3125q0 10.5625 -3.484375 19.390625q-3.46875 8.8125 -9.828125 15.234375q-6.359375 6.421875 -15.0625 9.96875q-8.703125 3.53125 -19.265625 3.53125zm0 -11.28125q7.8125 0 14.34375 -2.8125q6.546875 -2.828125 11.34375 -7.8125q4.796875 -4.984375 7.375 -11.703125q2.578125 -6.71875 2.578125 -14.515625q0 -7.796875 -2.578125 -14.515625q-2.578125 -6.71875 -7.375 -11.703125q-4.796875 -4.984375 -11.34375 -7.734375q-6.53125 -2.765625 -14.34375 -2.765625q-7.796875 0 -14.3437195 2.765625q-6.53125 2.75 -11.28125 7.734375q-4.734375 4.984375 -7.375 11.703125q-2.625 6.71875 -2.625 14.515625q0 7.796875 2.625 14.515625q2.640625 6.71875 7.375 11.703125q4.75 4.984375 11.28125 7.8125q6.5468445 2.8125 14.3437195 2.8125zm73.3324 10.078125q-2.640625 0 -4.390625 -1.796875q-1.734375 -1.796875 -1.734375 -4.4375l0 -81.25q0 -2.640625 1.796875 -4.4375q1.796875 -1.796875 4.328125 -1.796875q2.640625 0 4.4375 1.796875q1.796875 1.796875 1.796875 4.4375l0 75.0l43.4375 0q2.640625 0 4.4375 1.8125q1.8125 1.796875 1.8125 4.4375q0 2.640625 -1.8125 4.4375q-1.796875 1.796875 -4.4375 1.796875l-49.671875 0z" fill-rule="nonzero"/></g></svg>